<svg id="Layer_1" data-name="Layer 1" xmlns="http://www.w3.org/2000/svg" viewBox="0 0 24 24"><defs><style>.cls-1{fill:#32d4d8;}.cls-2{fill:#063837;}</style></defs><circle class="cls-1" cx="12" cy="12" r="12"/><path class="cls-2" d="M7,10.32H4.21l-.69,1.53H2.7L5.61,5.49l2.91,6.36H7.71Zm-.32-.7L5.61,7.16,4.53,9.62Z"/><path class="cls-2" d="M11.93,8.77h2.42V9a2.93,2.93,0,0,1-.81,2.11,2.77,2.77,0,0,1-2.08.85,2.89,2.89,0,0,1-2.17-1,3.17,3.17,0,0,1,0-4.47,3,3,0,0,1,2.23-.94,3.16,3.16,0,0,1,1.38.31A3,3,0,0,1,14,6.8l-.53.51a2.52,2.52,0,0,0-.85-.73,2.27,2.27,0,0,0-1.07-.27A2.32,2.32,0,0,0,9.85,7a2.41,2.41,0,0,0-.71,1.75,2.45,2.45,0,0,0,.7,1.73,2.18,2.18,0,0,0,1.67.76,2,2,0,0,0,1.35-.54,1.76,1.76,0,0,0,.65-1.27H11.93Z"/><path class="cls-2" d="M15.85,6.55a3.2,3.2,0,0,1,4.51,0A3.05,3.05,0,0,1,21.3,8.8a3,3,0,0,1-.93,2.26,3.25,3.25,0,0,1-4.53,0,3,3,0,0,1-.93-2.26A3.09,3.09,0,0,1,15.85,6.55Zm.54,4A2.44,2.44,0,0,0,20.54,8.8a2.43,2.43,0,0,0-.69-1.75,2.47,2.47,0,0,0-3.49,0,2.43,2.43,0,0,0-.69,1.75A2.38,2.38,0,0,0,16.39,10.55Z"/><path class="cls-2" d="M5.79,15.86l1.92,2.65H6.79L5,15.93H4.68v2.58H3.92v-6.1h.92l.56,0a2.77,2.77,0,0,1,.52.07,2,2,0,0,1,.53.2,1.57,1.57,0,0,1,.59.61,1.77,1.77,0,0,1,.21.84,1.73,1.73,0,0,1-.4,1.15A1.61,1.61,0,0,1,5.79,15.86ZM4.68,13.09V15.3h.24a3.49,3.49,0,0,0,.59,0,2.21,2.21,0,0,0,.5-.15.81.81,0,0,0,.39-.34,1.17,1.17,0,0,0,.14-.59c0-.72-.55-1.09-1.66-1.09Z"/><path class="cls-2" d="M12.76,17H10l-.69,1.53H8.45l2.91-6.36,2.92,6.36h-.82Zm-.31-.69-1.09-2.47-1.08,2.47Z"/><path class="cls-2" d="M21.3,13.11v0a3,3,0,0,0-2.58-.91,4.67,4.67,0,0,0-1.91.69h-.28a4.73,4.73,0,0,0-1.91-.69,3.08,3.08,0,0,0-1.42.15,2.9,2.9,0,0,0-1.16.76v5.42h0l.32,0h0a3.55,3.55,0,0,1,1.25-.54,3.43,3.43,0,0,1,2.83.55h.44a3.41,3.41,0,0,1,2.82-.55,3.66,3.66,0,0,1,1.26.54h0l.33,0h0Zm-1.21-.68a2.73,2.73,0,0,1,1.1.72V18.3a5.36,5.36,0,0,0-1.35-.61,4.24,4.24,0,0,0-1.1-.16l-.34,0a3.29,3.29,0,0,0-1.53.55V13A3.71,3.71,0,0,1,20.09,12.43Zm-3.33,5.71h-.2V13h.2Zm-4.64-5a2.8,2.8,0,0,1,1.11-.72,3.71,3.71,0,0,1,3.22.52V18.1a3.33,3.33,0,0,0-1.53-.55,3.83,3.83,0,0,0-1.45.14,5.75,5.75,0,0,0-1.35.61Zm2.81,4.62a3.38,3.38,0,0,0-1.34.06,4.17,4.17,0,0,0-1.28.55h-.13a5.16,5.16,0,0,1,1.32-.59,3.41,3.41,0,0,1,2.95.43v.14A3.59,3.59,0,0,0,14.93,17.77Zm1.63.62v-.14h.2v.14Zm3.17-.56a3.43,3.43,0,0,0-1.35-.06,3.5,3.5,0,0,0-1.51.6v-.14a3.39,3.39,0,0,1,2.94-.43,4.83,4.83,0,0,1,1.32.59H21A3.94,3.94,0,0,0,19.73,17.83Z"/></svg>